# Blender v2.79 (sub 0) OBJ File: 'head.blend'
# www.blender.org
mtllib head.mtl
o Cube_Cube.001
v -2.029052 9.245877 -8.436774
v -2.029052 7.681740 -8.436774
v -2.029052 6.117602 -8.436774
v -1.762168 4.447076 -8.068583
v -0.464951 9.245877 -8.426110
v -0.464951 7.681740 -8.426110
v -0.464951 6.117602 -8.426110
v -0.377194 4.447076 -8.059140
v 1.099150 9.245877 -8.415447
v 1.099150 7.681740 -8.415447
v 1.099150 6.117602 -8.415447
v 1.007781 4.447076 -8.049698
v 2.663251 9.245877 -8.404783
v 2.663251 7.681740 -8.404783
v 2.663251 6.117602 -8.404783
v 2.392756 4.447076 -8.040256
v 2.619633 9.245877 -2.006885
v 2.619633 7.681740 -2.006885
v 2.619633 6.117602 -2.006885
v 2.354133 4.447076 -2.375067
v 1.055532 9.245877 -2.017548
v 0.874317 7.500520 -2.018784
v 0.874317 6.298822 -2.018784
v 0.969158 4.447076 -2.384509
v -0.508569 9.245877 -2.028212
v -0.327354 7.500520 -2.026976
v -0.327354 6.298822 -2.026976
v -0.415817 4.447076 -2.393952
v -2.072670 9.245877 -2.038875
v -2.072670 7.681740 -2.038875
v -2.072670 6.117602 -2.038875
v -1.800791 4.447076 -2.403394
v -0.900597 8.070948 -1.615881
v -0.900597 8.856669 -1.615881
v -1.686301 8.856669 -1.621238
v -1.686301 8.070948 -1.621238
v 2.383451 7.915098 -1.593492
v 2.383451 9.012519 -1.593492
v 1.286055 9.012519 -1.600974
v 1.286055 7.915098 -1.600974
v 1.055532 7.681740 -2.017548
v 1.055532 6.117602 -2.017548
v -0.508569 7.681740 -2.028212
v -0.508569 6.117602 -2.028212
v 0.652012 7.290040 -0.285103
v 0.652012 6.509302 -0.285103
v -0.128708 7.290040 -0.290425
v -0.128708 6.509302 -0.290425
v -2.061766 10.810015 -3.638350
v -2.050861 10.810015 -5.237824
v -2.039957 10.810015 -6.837299
v -0.497665 10.810015 -3.627687
v -0.486760 10.810015 -5.227161
v -0.475855 10.810015 -6.826636
v 1.066437 10.810015 -3.617023
v 1.077341 10.810015 -5.216498
v 1.088246 10.810015 -6.815972
v 2.630538 10.810015 -3.606359
v 2.641442 10.810015 -5.205834
v 2.652347 10.810015 -6.805309
v -1.717727 3.026811 -6.559916
v -1.726755 3.026811 -5.235615
v -1.735784 3.026811 -3.911314
v -0.499927 3.026811 -6.876526
v -0.522415 3.026811 -3.578129
v 1.112798 3.026811 -6.865531
v 1.090311 3.026811 -3.567134
v 2.326168 3.026811 -6.532346
v 2.317139 3.026811 -5.208045
v 2.308111 3.026811 -3.883744
v 3.164057 4.447076 -6.618634
v 3.154401 4.447076 -5.202337
v 3.144746 4.447076 -3.786040
v 3.534309 6.117602 -6.799296
v 3.523405 6.117602 -5.199821
v 3.512500 6.117602 -3.600347
v 3.534309 7.681740 -6.799296
v 3.523405 7.681740 -5.199821
v 3.512500 7.681740 -3.600347
v 3.534309 9.245877 -6.799296
v 3.523405 9.245877 -5.199821
v 3.512500 9.245877 -3.600347
v -2.551265 4.447076 -3.824873
v -2.541609 4.447076 -5.241170
v -2.531953 4.447076 -6.657467
v -2.920207 6.117602 -3.644202
v -2.909302 6.117602 -5.243677
v -2.898397 6.117602 -6.843152
v -2.920207 7.681740 -3.644202
v -2.909302 7.681740 -5.243677
v -2.898397 7.681740 -6.843152
v -2.920207 9.245877 -3.644202
v -2.909302 9.245877 -5.243677
v -2.898397 9.245877 -6.843152
v 0.886527 11.383777 -5.024011
v 0.878264 11.383777 -3.812093
v 2.063379 11.383777 -3.804014
v 2.071642 11.383777 -5.015931
v -1.483703 11.383777 -5.040170
v -1.491965 11.383777 -3.828253
v -0.306850 11.383777 -3.820173
v -0.298588 11.383777 -5.032091
v 0.574572 13.281336 -4.126919
v 0.578570 13.281336 -4.713355
v 1.148039 13.281336 -4.123010
v 1.152037 13.281336 -4.709445
v -0.572360 13.281336 -4.134739
v -0.568362 13.281336 -4.721174
v 0.001106 13.281336 -4.130829
v 0.005104 13.281336 -4.717265
v 0.992897 13.924237 -4.545840
v 0.995917 13.924237 -4.988812
v 1.426073 13.924237 -4.542887
v 1.429093 13.924237 -4.985859
v -0.945884 13.924237 -3.742961
v -0.939401 13.924237 -4.693872
v -0.016003 13.924237 -3.736621
v -0.009520 13.924237 -4.687532
v 3.014358 3.026811 -2.387526
v 2.929280 10.237686 -2.004774
v 3.504788 10.237686 -2.469079
v 2.932473 10.810015 -2.472981
v -2.438113 3.026811 -2.424699
v -2.355604 10.810015 -2.509033
v -2.927919 10.237686 -2.512935
v -2.358796 10.237686 -2.040826
v 3.052750 3.026811 -8.018796
v 2.969707 10.810015 -7.934465
v 3.542022 10.237686 -7.930564
v 2.972899 10.237686 -8.402673
v -2.399721 3.026811 -8.055969
v -2.890685 10.237686 -7.974420
v -2.318370 10.810015 -7.970518
v -2.315177 10.237686 -8.438725
v -2.143092 3.026811 -2.422688
v -0.530367 3.026811 -2.411693
v 1.082359 3.026811 -2.400698
v 2.695084 3.026811 -2.389703
v 2.622825 10.810015 -2.475092
v 2.619633 10.237686 -2.006885
v 1.058724 10.810015 -2.485755
v 1.055532 10.237686 -2.017548
v -0.505377 10.810015 -2.496419
v -0.508569 10.237686 -2.028212
v -2.072670 10.237686 -2.038875
v -2.069478 10.810015 -2.507082
v 2.733476 3.026811 -8.020972
v 1.120751 3.026811 -8.031967
v -0.491975 3.026811 -8.042963
v -2.104700 3.026811 -8.053957
v -2.032244 10.810015 -7.968567
v -2.029052 10.237686 -8.436774
v -0.468143 10.810015 -7.957904
v -0.464951 10.237686 -8.426110
v 1.095958 10.810015 -7.947240
v 1.099150 10.237686 -8.415447
v 2.663251 10.237686 -8.404783
v 2.660059 10.810015 -7.936577
v 3.137916 4.447076 -2.784329
v 2.628318 4.447076 -2.373198
v 3.504788 6.117602 -2.469079
v 2.929280 6.117602 -2.004774
v 3.504788 7.681740 -2.469079
v 2.929280 7.681740 -2.004774
v 2.929280 9.245877 -2.004774
v 3.504788 9.245877 -2.469079
v -2.927919 9.245877 -2.512935
v -2.358796 9.245877 -2.040826
v -2.927919 7.681740 -2.512935
v -2.358796 7.681740 -2.040826
v -2.927919 6.117602 -2.512935
v -2.358796 6.117602 -2.040826
v -2.054149 4.447076 -2.405121
v -2.558094 4.447076 -2.823163
v -2.315177 9.245877 -8.438725
v -2.890685 9.245877 -7.974420
v -2.315177 7.681740 -8.438725
v -2.890685 7.681740 -7.974420
v -2.315177 6.117602 -8.438725
v -2.890685 6.117602 -7.974420
v -2.525124 4.447076 -7.659178
v -2.015526 4.447076 -8.070310
v 3.542022 9.245877 -7.930564
v 2.972899 9.245877 -8.402673
v 3.542022 7.681740 -7.930564
v 2.972899 7.681740 -8.402673
v 3.542022 6.117602 -7.930564
v 2.972899 6.117602 -8.402673
v 2.666942 4.447076 -8.038386
v 3.170887 4.447076 -7.620345
v -2.407674 3.026811 -6.889533
v -2.418917 3.026811 -5.240334
v -2.430161 3.026811 -3.591135
v -2.347891 10.810015 -3.640301
v -2.920207 10.237686 -3.644202
v -2.336987 10.810015 -5.239775
v -2.909302 10.237686 -5.243677
v -2.898397 10.237686 -6.843152
v -2.326082 10.810015 -6.839250
v 3.022310 3.026811 -3.553962
v 3.033554 3.026811 -5.203161
v 3.044797 3.026811 -6.852360
v 2.961994 10.810015 -6.803198
v 3.534309 10.237686 -6.799296
v 2.951090 10.810015 -5.203723
v 3.523405 10.237686 -5.199821
v 3.512500 10.237686 -3.600347
v 2.940185 10.810015 -3.604249
v 3.369076 3.381538 -2.385108
v 3.461003 3.872198 -2.506755
v 2.893373 3.872198 -2.048805
v 3.012380 3.381538 -2.097333
v -2.440092 3.381538 -2.134506
v -2.322325 3.872198 -2.084364
v -2.883658 3.872198 -2.550011
v -2.792832 3.381538 -2.427117
v 3.054729 3.381538 -8.308989
v 2.936395 3.872198 -8.359135
v 3.497728 3.872198 -7.893488
v 3.407468 3.381538 -8.016377
v -2.754440 3.381538 -8.058387
v -2.846933 3.872198 -7.936744
v -2.279304 3.872198 -8.394693
v -2.397743 3.381538 -8.346161
v -2.145071 3.381538 -2.132495
v -2.040115 3.872198 -2.082440
v -0.532345 3.381538 -2.121500
v -0.497422 3.872198 -2.071922
v 1.080380 3.381538 -2.110505
v 1.045271 3.872198 -2.061405
v 2.587964 3.872198 -2.050887
v 2.693106 3.381538 -2.099510
v 2.735455 3.381538 -8.311165
v 2.630985 3.872198 -8.361217
v 1.122729 3.381538 -8.322161
v 1.088292 3.872198 -8.371735
v -0.489997 3.381538 -8.333155
v -0.454401 3.872198 -8.382252
v -1.997094 3.872198 -8.392770
v -2.102722 3.381538 -8.344151
v -2.762392 3.381538 -6.891951
v -2.854541 3.872198 -6.820960
v -2.773636 3.381538 -5.242752
v -2.865296 3.872198 -5.243377
v -2.876051 3.872198 -3.665795
v -2.784879 3.381538 -3.593554
v 3.377029 3.381538 -3.551544
v 3.468610 3.872198 -3.622539
v 3.388272 3.381538 -5.200743
v 3.479366 3.872198 -5.200121
v 3.490121 3.872198 -6.777704
v 3.399516 3.381538 -6.849941
v -2.112653 3.026811 -6.887521
v -2.123896 3.026811 -5.238323
v -2.135140 3.026811 -3.589124
v 2.725523 3.026811 -6.854537
v 2.714280 3.026811 -5.205338
v 2.703036 3.026811 -3.556139
v 1.092526 3.026811 -3.892032
v 1.110583 3.026811 -6.540633
v -0.520200 3.026811 -3.903027
v -0.502142 3.026811 -6.551628
v -0.781664 -0.085180 -7.017816
v -0.793858 -0.085180 -5.229255
v -0.806052 -0.085180 -3.440694
v 1.396435 -0.085180 -7.002966
v 1.384242 -0.085180 -5.214406
v 1.372048 -0.085180 -3.425844
v 3.025974 -0.085180 -5.203213
v -2.435590 -0.085180 -5.240448
v -2.423397 -0.085180 -7.029009
v -2.447784 -0.085180 -3.451886
v 3.038167 -0.085180 -6.991774
v 3.013780 -0.085180 -3.414651
v -2.188173 0.952150 -6.872644
v -1.339556 1.989481 -6.308527
v -0.352346 1.989480 -6.301796
v -0.688490 0.952150 -6.862420
v 1.937272 1.989480 -5.210635
v 2.789696 0.952150 -5.204823
v 1.301151 0.952150 -6.848855
v 0.957394 1.989481 -6.292867
v 1.944605 1.989480 -6.286137
v 2.800834 0.952150 -6.838631
v -0.710768 0.952150 -3.594805
v -0.367010 1.989481 -4.150793
v -1.354221 1.989480 -4.157523
v -2.210451 0.952150 -3.605029
v 1.278874 0.952150 -3.581240
v 0.942729 1.989481 -4.141864
v 1.929940 1.989480 -4.135133
v 2.778557 0.952150 -3.571016
v -2.199312 0.952150 -5.238837
v -1.346888 1.989481 -5.233025
v 5.258318 6.117602 -5.187993
v 5.247413 6.117602 -3.588519
v 5.258318 7.681740 -5.187993
v 5.247413 7.681740 -3.588519
v 5.258318 9.245877 -5.187993
v 5.247413 9.245877 -3.588519
v -4.708632 6.117602 -3.656395
v -4.697728 6.117602 -5.255870
v -4.708632 7.681740 -3.656395
v -4.697728 7.681740 -5.255870
v -4.708632 9.245877 -3.656395
v -4.697728 9.245877 -5.255870
vn -1.0000 0.0000 -0.0068
vn 0.0000 -1.0000 0.0000
vn 1.0000 0.0000 0.0068
vn 0.0000 1.0000 -0.0000
vn 0.7071 -0.7071 0.0048
vn 0.0053 -0.6332 -0.7740
vn -0.0068 0.0000 1.0000
vn -0.7071 -0.7071 -0.0048
vn 0.9764 -0.2157 0.0067
vn -0.0067 -0.2142 0.9768
vn -0.0008 -0.9927 0.1204
vn -0.0053 -0.6332 0.7740
vn 0.0067 -0.2142 -0.9768
vn 0.0068 0.0000 -1.0000
vn -0.9766 -0.2150 -0.0067
vn 0.7247 0.0000 0.6890
vn -0.0047 0.7294 0.6841
vn -0.7341 0.0000 0.6791
vn -0.0047 -0.7294 0.6841
vn 0.8683 0.0000 0.4961
vn -0.0033 0.8716 0.4901
vn -0.8750 0.0000 0.4842
vn -0.0033 -0.8716 0.4901
vn 0.9919 0.0000 0.1272
vn -0.0008 0.9927 0.1204
vn -0.9935 0.0000 0.1137
vn 0.9750 0.2221 0.0066
vn -0.0067 0.1476 0.9890
vn 0.0067 0.1476 -0.9890
vn -0.0057 0.5485 0.8361
vn 0.0063 -0.3973 -0.9177
vn 0.9003 0.4353 0.0061
vn -0.9495 -0.3136 -0.0065
vn -0.0065 0.3200 0.9474
vn 0.7103 0.7038 0.0048
vn 0.0065 0.3200 -0.9474
vn -0.9003 0.4353 -0.0061
vn -0.7103 0.7038 -0.0048
vn 0.9495 -0.3136 0.0065
vn 0.0067 0.1626 -0.9867
vn -0.9872 -0.1591 -0.0067
vn -0.0067 0.1626 0.9867
vn 0.9872 -0.1591 0.0067
vn 0.9997 0.0224 0.0068
vn -0.8662 -0.4997 -0.0059
vn 0.9193 -0.3935 0.0063
vn -0.8399 0.5428 -0.0057
vn 0.0068 0.0464 -0.9989
vn -0.0058 -0.5228 0.8524
vn 0.5075 0.5889 0.6290
vn 0.5305 0.5350 0.6576
vn -0.5163 0.5882 0.6224
vn -0.5394 0.5350 0.6503
vn 0.5160 0.5889 -0.6220
vn 0.5394 0.5350 -0.6503
vn -0.5078 0.5882 -0.6294
vn -0.5305 0.5350 -0.6576
vn -0.0059 0.4894 0.8721
vn 0.6279 0.0000 0.7783
vn -0.0053 0.6332 0.7740
vn -0.8713 0.4906 -0.0059
vn -0.7071 0.7071 -0.0048
vn 0.0059 0.4893 -0.8721
vn 0.0053 0.6332 -0.7740
vn 0.0059 0.4894 -0.8721
vn 0.8705 0.4921 0.0059
vn 0.7071 0.7071 0.0048
vn -0.5394 -0.5350 0.6503
vn -0.0059 0.4893 0.8721
vn 0.5394 -0.5350 -0.6503
vn 0.6039 -0.2739 0.7485
vn -0.6385 0.0000 0.7697
vn -0.6141 -0.2734 0.7403
vn -0.6279 0.0000 -0.7783
vn -0.6040 -0.2734 -0.7486
vn 0.6385 0.0000 -0.7697
vn 0.6140 -0.2739 -0.7402
vn -0.5305 -0.5350 -0.6576
vn 0.5305 -0.5350 0.6576
vn 0.6261 0.0751 0.7761
vn -0.6367 0.0744 0.7675
vn 0.6367 0.0751 -0.7675
vn -0.6262 0.0744 -0.7761
vn -0.0068 -0.1001 0.9950
vn -0.9830 -0.1836 -0.0067
vn 0.0068 -0.1001 -0.9950
vn 0.9832 -0.1825 0.0067
vn -0.9750 0.2221 -0.0066
vn -0.9390 -0.3439 -0.0064
vn -0.7726 0.6349 -0.0053
vn -0.0066 -0.2332 0.9724
vn -0.0060 0.4739 0.8805
vn 0.0066 -0.2332 -0.9724
vn 0.0060 0.4739 -0.8805
vn 0.9390 -0.3439 0.0064
vn 0.7726 0.6349 0.0053
usemtl None
s off
f 167//1 125//1 195//1 92//1
f 135//2 255//2 65//2 136//2
f 183//3 129//3 204//3 80//3
f 58//4 139//4 122//4 208//4
f 202//5 127//5 220//5 252//5
f 127//6 147//6 233//6 217//6
f 29//7 145//7 126//7 168//7
f 148//6 149//6 237//6 235//6
f 25//7 144//7 145//7 29//7
f 21//7 142//7 144//7 25//7
f 133//4 199//4 51//4 151//4
f 151//4 51//4 54//4 153//4
f 191//8 192//8 243//8 241//8
f 149//6 150//6 240//6 237//6
f 94//1 198//1 132//1 176//1
f 153//4 54//4 57//4 155//4
f 155//4 57//4 60//4 158//4
f 73//9 76//9 161//9 159//9
f 82//3 207//3 121//3 166//3
f 55//4 141//4 139//4 58//4
f 52//4 143//4 141//4 55//4
f 49//4 146//4 143//4 52//4
f 136//2 65//2 67//2 137//2
f 28//10 44//10 31//10 32//10
f 44//7 43//7 30//7 31//7
f 137//2 67//2 258//2 138//2
f 24//10 42//10 44//10 28//10
f 27//11 23//11 46//11 48//11
f 41//7 21//7 25//7 43//7
f 17//7 140//7 142//7 21//7
f 20//10 19//10 42//10 24//10
f 19//7 18//7 41//7 42//7
f 138//12 119//12 212//12 232//12
f 76//3 79//3 163//3 161//3
f 79//3 82//3 166//3 163//3
f 169//1 167//1 92//1 89//1
f 66//2 148//2 147//2 256//2
f 12//13 11//13 15//13 16//13
f 11//14 10//14 14//14 15//14
f 10//14 9//14 13//14 14//14
f 64//2 149//2 148//2 66//2
f 8//13 7//13 11//13 12//13
f 7//14 6//14 10//14 11//14
f 6//14 5//14 9//14 10//14
f 253//2 150//2 149//2 64//2
f 4//13 3//13 7//13 8//13
f 3//14 2//14 6//14 7//14
f 2//14 1//14 5//14 6//14
f 191//2 131//2 150//2 253//2
f 185//3 183//3 80//3 77//3
f 85//15 88//15 180//15 181//15
f 88//1 91//1 178//1 180//1
f 165//7 120//7 140//7 17//7
f 160//10 162//10 19//10 20//10
f 162//7 164//7 18//7 19//7
f 164//7 165//7 17//7 18//7
f 158//4 60//4 203//4 128//4
f 192//2 191//2 253//2 254//2
f 190//9 187//9 74//9 71//9
f 187//3 185//3 77//3 74//3
f 135//12 136//12 227//12 225//12
f 182//13 179//13 3//13 4//13
f 179//14 177//14 2//14 3//14
f 177//14 175//14 1//14 2//14
f 194//4 124//4 146//4 49//4
f 91//1 94//1 176//1 178//1
f 174//15 171//15 86//15 83//15
f 171//1 169//1 89//1 86//1
f 33//7 34//7 35//7 36//7
f 25//16 34//16 33//16 43//16
f 29//17 35//17 34//17 25//17
f 30//18 36//18 35//18 29//18
f 43//19 33//19 36//19 30//19
f 37//7 38//7 39//7 40//7
f 17//20 38//20 37//20 18//20
f 21//21 39//21 38//21 17//21
f 41//22 40//22 39//22 21//22
f 18//23 37//23 40//23 41//23
f 22//7 23//7 42//7 41//7
f 27//7 26//7 43//7 44//7
f 23//7 27//7 44//7 42//7
f 26//7 22//7 41//7 43//7
f 46//7 45//7 47//7 48//7
f 23//24 22//24 45//24 46//24
f 22//25 26//25 47//25 45//25
f 26//26 27//26 48//26 47//26
f 30//7 29//7 168//7 170//7
f 90//14 87//14 302//14 304//14
f 90//1 93//1 94//1 91//1
f 31//7 30//7 170//7 172//7
f 93//14 90//14 304//14 306//14
f 87//1 90//1 91//1 88//1
f 32//10 31//10 172//10 173//10
f 83//15 86//15 87//15 84//15
f 84//15 87//15 88//15 85//15
f 123//2 193//2 255//2 135//2
f 92//1 195//1 197//1 93//1
f 193//2 192//2 254//2 255//2
f 14//14 13//14 184//14 186//14
f 77//3 80//3 81//3 78//3
f 81//4 82//4 300//4 299//4
f 15//14 14//14 186//14 188//14
f 74//3 77//3 78//3 75//3
f 75//14 78//14 297//14 295//14
f 16//13 15//13 188//13 189//13
f 71//9 74//9 75//9 72//9
f 72//9 75//9 76//9 73//9
f 256//2 147//2 127//2 202//2
f 80//3 204//3 206//3 81//3
f 257//2 256//2 202//2 201//2
f 147//6 148//6 235//6 233//6
f 280//27 292//27 274//27 269//27
f 289//28 285//28 265//28 268//28
f 137//12 138//12 232//12 229//12
f 275//29 278//29 263//29 271//29
f 284//27 280//27 269//27 273//27
f 136//12 137//12 229//12 227//12
f 281//29 284//29 273//29 266//29
f 285//28 288//28 272//28 265//28
f 193//8 123//8 216//8 246//8
f 200//5 201//5 249//5 247//5
f 192//8 193//8 246//8 243//8
f 9//14 156//14 157//14 13//14
f 57//4 56//4 59//4 60//4
f 103//30 105//30 113//30 111//30
f 5//14 154//14 156//14 9//14
f 54//4 53//4 56//4 57//4
f 53//4 52//4 55//4 56//4
f 1//14 152//14 154//14 5//14
f 51//4 50//4 53//4 54//4
f 106//31 104//31 112//31 114//31
f 175//14 134//14 152//14 1//14
f 258//2 257//2 201//2 200//2
f 93//1 197//1 198//1 94//1
f 13//14 157//14 130//14 184//14
f 81//3 206//3 207//3 82//3
f 123//12 135//12 225//12 213//12
f 201//5 202//5 252//5 249//5
f 150//6 131//6 224//6 240//6
f 60//4 59//4 205//4 203//4
f 59//4 58//4 208//4 205//4
f 131//8 191//8 241//8 221//8
f 196//4 194//4 49//4 50//4
f 199//4 196//4 50//4 51//4
f 97//32 98//32 106//32 105//32
f 55//33 96//33 95//33 56//33
f 58//34 97//34 96//34 55//34
f 59//35 98//35 97//35 58//35
f 56//36 95//36 98//36 59//36
f 99//37 100//37 107//37 108//37
f 49//38 100//38 99//38 50//38
f 52//34 101//34 100//34 49//34
f 53//39 102//39 101//39 52//39
f 50//36 99//36 102//36 53//36
f 102//40 99//40 108//40 110//40
f 95//41 96//41 103//41 104//41
f 100//42 101//42 109//42 107//42
f 98//40 95//40 104//40 106//40
f 96//42 97//42 105//42 103//42
f 101//43 102//43 110//43 109//43
f 116//4 115//4 117//4 118//4
f 112//4 111//4 113//4 114//4
f 109//44 110//44 118//44 117//44
f 108//45 107//45 115//45 116//45
f 105//46 106//46 114//46 113//46
f 104//47 103//47 111//47 112//47
f 110//48 108//48 116//48 118//48
f 107//49 109//49 117//49 115//49
f 210//50 159//50 160//50 211//50
f 120//51 121//51 122//51
f 174//52 215//52 214//52 173//52
f 124//53 125//53 126//53
f 190//54 219//54 218//54 189//54
f 128//55 129//55 130//55
f 182//56 223//56 222//56 181//56
f 132//57 133//57 134//57
f 211//58 160//58 20//58 231//58
f 166//59 121//59 120//59 165//59
f 146//60 124//60 126//60 145//60
f 226//58 32//58 173//58 214//58
f 215//61 174//61 83//61 245//61
f 199//62 133//62 132//62 198//62
f 242//61 85//61 181//61 222//61
f 223//63 182//63 4//63 239//63
f 158//64 128//64 130//64 157//64
f 234//65 16//65 189//65 218//65
f 219//66 190//66 71//66 251//66
f 208//67 122//67 121//67 207//67
f 213//68 216//68 123//68
f 228//69 28//69 32//69 226//69
f 230//69 24//69 28//69 228//69
f 231//69 20//69 24//69 230//69
f 122//60 139//60 140//60 120//60
f 139//60 141//60 142//60 140//60
f 141//60 143//60 144//60 142//60
f 143//60 146//60 145//60 144//60
f 217//70 220//70 127//70
f 236//65 12//65 16//65 234//65
f 238//63 8//63 12//63 236//63
f 239//63 4//63 8//63 238//63
f 133//64 151//64 152//64 134//64
f 151//64 153//64 154//64 152//64
f 153//64 155//64 156//64 154//64
f 155//64 158//64 157//64 156//64
f 248//66 73//66 159//66 210//66
f 159//71 161//71 162//71 160//71
f 161//59 163//59 164//59 162//59
f 163//59 166//59 165//59 164//59
f 125//72 167//72 168//72 126//72
f 167//72 169//72 170//72 168//72
f 169//72 171//72 172//72 170//72
f 171//73 174//73 173//73 172//73
f 134//74 175//74 176//74 132//74
f 175//74 177//74 178//74 176//74
f 177//74 179//74 180//74 178//74
f 179//75 182//75 181//75 180//75
f 129//76 183//76 184//76 130//76
f 183//76 185//76 186//76 184//76
f 185//76 187//76 188//76 186//76
f 187//77 190//77 189//77 188//77
f 221//78 224//78 131//78
f 244//61 84//61 85//61 242//61
f 245//61 83//61 84//61 244//61
f 124//62 194//62 195//62 125//62
f 194//62 196//62 197//62 195//62
f 196//62 199//62 198//62 197//62
f 119//79 209//79 212//79
f 250//66 72//66 73//66 248//66
f 251//66 71//66 72//66 250//66
f 128//67 203//67 204//67 129//67
f 203//67 205//67 206//67 204//67
f 205//67 208//67 207//67 206//67
f 138//2 258//2 200//2 119//2
f 210//80 211//80 212//80 209//80
f 214//81 215//81 216//81 213//81
f 218//82 219//82 220//82 217//82
f 222//83 223//83 224//83 221//83
f 211//84 231//84 232//84 212//84
f 215//85 245//85 246//85 216//85
f 223//86 239//86 240//86 224//86
f 219//87 251//87 252//87 220//87
f 226//84 214//84 213//84 225//84
f 228//84 226//84 225//84 227//84
f 230//84 228//84 227//84 229//84
f 231//84 230//84 229//84 232//84
f 234//86 218//86 217//86 233//86
f 236//86 234//86 233//86 235//86
f 238//86 236//86 235//86 237//86
f 239//86 238//86 237//86 240//86
f 242//85 222//85 221//85 241//85
f 244//85 242//85 241//85 243//85
f 245//85 244//85 243//85 246//85
f 248//87 210//87 209//87 247//87
f 250//87 248//87 247//87 249//87
f 251//87 250//87 249//87 252//87
f 119//5 200//5 247//5 209//5
f 61//2 62//2 254//2 253//2
f 62//2 63//2 255//2 254//2
f 69//2 68//2 256//2 257//2
f 70//2 69//2 257//2 258//2
f 259//2 70//2 258//2 67//2
f 68//2 260//2 66//2 256//2
f 261//2 259//2 67//2 65//2
f 260//2 262//2 64//2 66//2
f 63//2 261//2 65//2 255//2
f 262//2 61//2 253//2 64//2
f 268//2 267//2 269//2 274//2
f 267//2 266//2 273//2 269//2
f 265//2 264//2 267//2 268//2
f 264//2 263//2 266//2 267//2
f 272//2 270//2 264//2 265//2
f 270//2 271//2 263//2 264//2
f 293//88 275//88 271//88 270//88
f 278//29 281//29 266//29 263//29
f 292//28 289//28 268//28 274//28
f 288//88 293//88 270//88 272//88
f 63//89 62//89 294//89 287//89
f 287//90 294//90 293//90 288//90
f 70//91 259//91 290//91 291//91
f 291//92 290//92 289//92 292//92
f 262//93 260//93 282//93 277//93
f 277//94 282//94 281//94 278//94
f 62//89 61//89 276//89 294//89
f 294//90 276//90 275//90 293//90
f 261//91 63//91 287//91 286//91
f 286//92 287//92 288//92 285//92
f 260//93 68//93 283//93 282//93
f 282//94 283//94 284//94 281//94
f 68//95 69//95 279//95 283//95
f 283//96 279//96 280//96 284//96
f 61//93 262//93 277//93 276//93
f 276//94 277//94 278//94 275//94
f 259//91 261//91 286//91 290//91
f 290//92 286//92 285//92 289//92
f 69//95 70//95 291//95 279//95
f 279//96 291//96 292//96 280//96
f 297//3 299//3 300//3 298//3
f 295//3 297//3 298//3 296//3
f 82//7 79//7 298//7 300//7
f 76//2 75//2 295//2 296//2
f 79//7 76//7 296//7 298//7
f 78//14 81//14 299//14 297//14
f 303//1 305//1 306//1 304//1
f 301//1 303//1 304//1 302//1
f 89//7 92//7 305//7 303//7
f 92//4 93//4 306//4 305//4
f 87//2 86//2 301//2 302//2
f 86//7 89//7 303//7 301//7
